<svg viewBox="0 0 128 128" xmlns="http://www.w3.org/2000/svg">
  <!-- Background Circle -->
  <circle cx="64" cy="64" r="60" fill="#0c4a6e"/>
  
  <!-- Outer Ring (Gold Accent) -->
  <circle cx="64" cy="64" r="60" fill="none" stroke="#eab308" stroke-width="4"/>
  
  <!-- Document/Resume Shape -->
  <rect x="40" y="30" width="48" height="62" rx="4" fill="#fefefe"/>
  
  <!-- Document Lines (Resume Content) -->
  <line x1="48" y1="42" x2="72" y2="42" stroke="#0c4a6e" stroke-width="2.5" stroke-linecap="round"/>
  <line x1="48" y1="50" x2="80" y2="50" stroke="#64748b" stroke-width="2" stroke-linecap="round"/>
  <line x1="48" y1="58" x2="76" y2="58" stroke="#64748b" stroke-width="2" stroke-linecap="round"/>
  <line x1="48" y1="66" x2="80" y2="66" stroke="#64748b" stroke-width="2" stroke-linecap="round"/>
  <line x1="48" y1="74" x2="74" y2="74" stroke="#64748b" stroke-width="2" stroke-linecap="round"/>
  
  <!-- AI Sparkle/Magic Effect (Gold) -->
  <g transform="translate(75, 70)">
    <!-- Star 1 -->
    <path d="M 0,-8 L 2,-2 L 8,0 L 2,2 L 0,8 L -2,2 L -8,0 L -2,-2 Z" fill="#eab308"/>
    <!-- Star 2 (smaller) -->
    <path d="M 12,-12 L 13,-9 L 16,-8 L 13,-7 L 12,-4 L 11,-7 L 8,-8 L 11,-9 Z" fill="#eab308" opacity="0.8"/>
    <!-- Star 3 (tiny) -->
    <circle cx="6" cy="4" r="1.5" fill="#eab308" opacity="0.6"/>
  </g>
  
  <!-- Pen/Edit Icon (Gold accent) -->
  <g transform="translate(45, 78)">
    <path d="M 0,8 L 0,12 L 4,12 L 12,4 L 8,0 Z" fill="#eab308"/>
    <path d="M 8,0 L 12,4 L 14,2 L 10,-2 Z" fill="#ca8a04"/>
  </g>
</svg>
